<mxfile host="app.diagrams.net" modified="2022-04-16T09:48:15.502Z" agent="5.0 (Windows NT 10.0; Win64; x64) AppleWebKit/537.36 (KHTML, like Gecko) Chrome/100.0.4896.75 Safari/537.36" etag="s3XCYGW6m-zK_kOTXikn" version="17.4.5" type="github">
  <diagram id="OXkIRa2-YY4k-pXQrkS8" name="Page-1">
    <mxGraphModel dx="412" dy="230" grid="1" gridSize="10" guides="1" tooltips="1" connect="1" arrows="1" fold="1" page="1" pageScale="1" pageWidth="827" pageHeight="1169" math="0" shadow="0">
      <root>
        <mxCell id="0" />
        <mxCell id="1" parent="0" />
        <mxCell id="Mc_krjjgkNhKQVEosxgI-1" value="&lt;font style=&quot;font-size: 26px&quot;&gt;&lt;span&gt;Diagram 2&lt;/span&gt;&lt;br&gt;앱 구동&lt;br style=&quot;font-size: 17px&quot;&gt;&lt;/font&gt;" style="text;html=1;align=center;verticalAlign=middle;resizable=0;points=[];autosize=1;strokeColor=none;fillColor=none;fontSize=17;fontStyle=1" parent="1" vertex="1">
          <mxGeometry x="50" y="55" width="140" height="50" as="geometry" />
        </mxCell>
        <mxCell id="Mc_krjjgkNhKQVEosxgI-2" value="앱 메인화면" style="rounded=0;whiteSpace=wrap;html=1;fontSize=17;fontStyle=1;strokeWidth=2;" parent="1" vertex="1">
          <mxGeometry x="490" y="180" width="110" height="50" as="geometry" />
        </mxCell>
        <mxCell id="Mc_krjjgkNhKQVEosxgI-7" value="" style="endArrow=classic;html=1;rounded=0;fontSize=17;entryX=0.5;entryY=0;entryDx=0;entryDy=0;exitX=0.5;exitY=1;exitDx=0;exitDy=0;fontStyle=1;strokeWidth=2;" parent="1" source="Mc_krjjgkNhKQVEosxgI-2" edge="1">
          <mxGeometry width="50" height="50" relative="1" as="geometry">
            <mxPoint x="560" y="290" as="sourcePoint" />
            <mxPoint x="545" y="270" as="targetPoint" />
          </mxGeometry>
        </mxCell>
        <mxCell id="Mc_krjjgkNhKQVEosxgI-8" value="" style="endArrow=classic;html=1;rounded=0;fontSize=17;entryX=0.5;entryY=0;entryDx=0;entryDy=0;exitX=0.5;exitY=1;exitDx=0;exitDy=0;fontStyle=1;strokeWidth=2;" parent="1" edge="1">
          <mxGeometry width="50" height="50" relative="1" as="geometry">
            <mxPoint x="545" y="330" as="sourcePoint" />
            <mxPoint x="544.9899999999998" y="360" as="targetPoint" />
          </mxGeometry>
        </mxCell>
        <mxCell id="Mc_krjjgkNhKQVEosxgI-9" value="" style="endArrow=classic;html=1;rounded=0;fontSize=17;entryX=0.5;entryY=0;entryDx=0;entryDy=0;exitX=0.5;exitY=1;exitDx=0;exitDy=0;fontStyle=1;startArrow=none;strokeWidth=2;" parent="1" source="3q4-ErVGuZIJLskHHzQT-7" target="3q4-ErVGuZIJLskHHzQT-3" edge="1">
          <mxGeometry width="50" height="50" relative="1" as="geometry">
            <mxPoint x="545" y="950" as="sourcePoint" />
            <mxPoint x="480" y="840" as="targetPoint" />
          </mxGeometry>
        </mxCell>
        <mxCell id="Mc_krjjgkNhKQVEosxgI-11" value="" style="shape=partialRectangle;whiteSpace=wrap;html=1;bottom=1;right=1;left=1;top=0;fillColor=none;routingCenterX=-0.5;fontSize=17;rotation=90;fontStyle=1;strokeWidth=2;" parent="1" vertex="1">
          <mxGeometry x="313.91999999999996" y="1060" width="42.18" height="119.38" as="geometry" />
        </mxCell>
        <mxCell id="Mc_krjjgkNhKQVEosxgI-12" value="블랙리스트" style="text;html=1;align=center;verticalAlign=middle;resizable=0;points=[];autosize=1;strokeColor=none;fillColor=none;fontSize=17;fontStyle=1;strokeWidth=2;" parent="1" vertex="1">
          <mxGeometry x="285" y="1104.6899999999998" width="100" height="30" as="geometry" />
        </mxCell>
        <mxCell id="Mc_krjjgkNhKQVEosxgI-13" value="" style="endArrow=classic;html=1;rounded=0;fontSize=17;entryX=0;entryY=0.5;entryDx=0;entryDy=0;exitX=0.5;exitY=0;exitDx=0;exitDy=0;fontStyle=1;strokeWidth=2;" parent="1" source="Mc_krjjgkNhKQVEosxgI-11" edge="1">
          <mxGeometry width="50" height="50" relative="1" as="geometry">
            <mxPoint x="410" y="1139.69" as="sourcePoint" />
            <mxPoint x="485" y="1119.69" as="targetPoint" />
          </mxGeometry>
        </mxCell>
        <mxCell id="Mc_krjjgkNhKQVEosxgI-14" value="&lt;div style=&quot;font-size: 17px;&quot;&gt;블랙리스트&lt;/div&gt;&lt;div style=&quot;font-size: 17px;&quot;&gt;확인&lt;/div&gt;" style="html=1;whiteSpace=wrap;aspect=fixed;shape=isoRectangle;fontSize=17;align=center;fontStyle=1;strokeWidth=2;" parent="1" vertex="1">
          <mxGeometry x="488.33" y="1191.69" width="113.33" height="68" as="geometry" />
        </mxCell>
        <mxCell id="Mc_krjjgkNhKQVEosxgI-15" value="&lt;span style=&quot;color: rgb(0 , 0 , 0) ; font-family: &amp;#34;helvetica&amp;#34; ; font-size: 17px ; font-style: normal ; letter-spacing: normal ; text-align: center ; text-indent: 0px ; text-transform: none ; word-spacing: 0px ; display: inline ; float: none&quot;&gt;FE 예약 번호 : A3xy&lt;/span&gt;&lt;br style=&quot;color: rgb(0 , 0 , 0) ; font-family: &amp;#34;helvetica&amp;#34; ; font-size: 17px ; font-style: normal ; letter-spacing: normal ; text-align: center ; text-indent: 0px ; text-transform: none ; word-spacing: 0px&quot;&gt;&lt;span style=&quot;color: rgb(0 , 0 , 0) ; font-family: &amp;#34;helvetica&amp;#34; ; font-size: 17px ; font-style: normal ; letter-spacing: normal ; text-align: center ; text-indent: 0px ; text-transform: none ; word-spacing: 0px ; display: inline ; float: none&quot;&gt;BE 예약번호 : A3xyx&#39;y&#39;x&#39;&#39;y&#39;&#39;&lt;/span&gt;" style="endArrow=classic;html=1;rounded=0;fontSize=17;exitX=0.5;exitY=1;exitDx=0;exitDy=0;entryX=0.5;entryY=0;entryDx=0;entryDy=0;fontStyle=1" parent="1" source="HhNQKhSK0bE4_6mPql5p-9" target="3q4-ErVGuZIJLskHHzQT-7" edge="1">
          <mxGeometry width="50" height="50" relative="1" as="geometry">
            <mxPoint x="524.9899999999998" y="940" as="sourcePoint" />
            <mxPoint x="524.9957142857143" y="980" as="targetPoint" />
          </mxGeometry>
        </mxCell>
        <mxCell id="Mc_krjjgkNhKQVEosxgI-16" value="" style="endArrow=classic;html=1;rounded=0;fontSize=17;exitX=0.5;exitY=1;exitDx=0;exitDy=0;fontStyle=1;strokeWidth=2;" parent="1" target="Mc_krjjgkNhKQVEosxgI-14" edge="1">
          <mxGeometry width="50" height="50" relative="1" as="geometry">
            <mxPoint x="545" y="1149.69" as="sourcePoint" />
            <mxPoint x="600" y="1199.69" as="targetPoint" />
          </mxGeometry>
        </mxCell>
        <mxCell id="Mc_krjjgkNhKQVEosxgI-21" value="" style="endArrow=classic;html=1;rounded=0;fontSize=17;entryX=1;entryY=0.5;entryDx=0;entryDy=0;exitX=0;exitY=0.5;exitDx=0;exitDy=0;fontStyle=1;strokeWidth=2;" parent="1" edge="1">
          <mxGeometry width="50" height="50" relative="1" as="geometry">
            <mxPoint x="330" y="1259.69" as="sourcePoint" />
            <mxPoint x="270" y="1259.69" as="targetPoint" />
          </mxGeometry>
        </mxCell>
        <mxCell id="Mc_krjjgkNhKQVEosxgI-22" value="" style="endArrow=classic;html=1;rounded=0;fontSize=17;exitX=0;exitY=0.5;exitDx=0;exitDy=0;entryX=0;entryY=0.5;entryDx=0;entryDy=0;edgeStyle=orthogonalEdgeStyle;fontStyle=1;strokeWidth=2;" parent="1" source="3q4-ErVGuZIJLskHHzQT-5" target="Mc_krjjgkNhKQVEosxgI-2" edge="1">
          <mxGeometry width="50" height="50" relative="1" as="geometry">
            <mxPoint x="40" y="600" as="sourcePoint" />
            <mxPoint x="90" y="550" as="targetPoint" />
          </mxGeometry>
        </mxCell>
        <mxCell id="Mc_krjjgkNhKQVEosxgI-27" value="좌석이 110석&lt;br style=&quot;font-size: 17px;&quot;&gt;이상 찼나?" style="html=1;whiteSpace=wrap;aspect=fixed;shape=isoRectangle;fontSize=17;fontStyle=1;strokeWidth=2;" parent="1" vertex="1">
          <mxGeometry x="580" y="1289.69" width="140" height="84" as="geometry" />
        </mxCell>
        <mxCell id="Mc_krjjgkNhKQVEosxgI-28" value="" style="endArrow=classic;html=1;rounded=0;fontSize=17;entryX=1;entryY=0.5;entryDx=0;entryDy=0;exitX=0.502;exitY=0.984;exitDx=0;exitDy=0;exitPerimeter=0;fontStyle=1;strokeWidth=2;" parent="1" target="3q4-ErVGuZIJLskHHzQT-4" edge="1">
          <mxGeometry width="50" height="50" relative="1" as="geometry">
            <mxPoint x="545.2216599999999" y="1258.602" as="sourcePoint" />
            <mxPoint x="420" y="1259.69" as="targetPoint" />
          </mxGeometry>
        </mxCell>
        <mxCell id="Mc_krjjgkNhKQVEosxgI-32" value="&amp;lt;&amp;lt;맞다&amp;gt;&amp;gt;" style="edgeLabel;html=1;align=center;verticalAlign=middle;resizable=0;points=[];fontSize=17;fontStyle=1" parent="Mc_krjjgkNhKQVEosxgI-28" vertex="1" connectable="0">
          <mxGeometry x="-0.1659" relative="1" as="geometry">
            <mxPoint x="-13" y="-1" as="offset" />
          </mxGeometry>
        </mxCell>
        <mxCell id="Mc_krjjgkNhKQVEosxgI-31" value="" style="endArrow=classic;html=1;rounded=0;fontSize=17;exitX=0.503;exitY=0.978;exitDx=0;exitDy=0;exitPerimeter=0;edgeStyle=orthogonalEdgeStyle;entryX=0.5;entryY=0.017;entryDx=0;entryDy=0;entryPerimeter=0;fontStyle=1;strokeWidth=2;" parent="1" source="Mc_krjjgkNhKQVEosxgI-14" target="Mc_krjjgkNhKQVEosxgI-27" edge="1">
          <mxGeometry width="50" height="50" relative="1" as="geometry">
            <mxPoint x="603.33" y="1279.69" as="sourcePoint" />
            <mxPoint x="653.33" y="1229.69" as="targetPoint" />
            <Array as="points">
              <mxPoint x="545" y="1260" />
              <mxPoint x="650" y="1260" />
            </Array>
          </mxGeometry>
        </mxCell>
        <mxCell id="Mc_krjjgkNhKQVEosxgI-33" value="&amp;lt;&amp;lt;아니다&amp;gt;&amp;gt;" style="edgeLabel;html=1;align=center;verticalAlign=middle;resizable=0;points=[];fontSize=17;fontStyle=1" parent="Mc_krjjgkNhKQVEosxgI-31" vertex="1" connectable="0">
          <mxGeometry x="-0.2434" relative="1" as="geometry">
            <mxPoint x="13" y="-1" as="offset" />
          </mxGeometry>
        </mxCell>
        <mxCell id="Mc_krjjgkNhKQVEosxgI-34" value="" style="shape=offPageConnector;whiteSpace=wrap;html=1;fontSize=17;rotation=-90;size=0.2857142857142857;fontStyle=1;strokeWidth=2;" parent="1" vertex="1">
          <mxGeometry x="460" y="1379.69" width="80" height="140" as="geometry" />
        </mxCell>
        <mxCell id="Mc_krjjgkNhKQVEosxgI-35" value="&quot;주변 식당&lt;br style=&quot;font-size: 17px;&quot;&gt;추천 팝업&quot;&lt;br style=&quot;font-size: 17px;&quot;&gt;출력" style="text;html=1;align=center;verticalAlign=middle;resizable=0;points=[];autosize=1;strokeColor=none;fillColor=none;fontSize=17;fontStyle=1;strokeWidth=2;" parent="1" vertex="1">
          <mxGeometry x="435" y="1414.69" width="100" height="70" as="geometry" />
        </mxCell>
        <mxCell id="Mc_krjjgkNhKQVEosxgI-36" value="" style="edgeStyle=orthogonalEdgeStyle;elbow=horizontal;endArrow=classic;html=1;rounded=0;fontSize=17;exitX=0.506;exitY=0.98;exitDx=0;exitDy=0;exitPerimeter=0;entryX=1;entryY=0.5;entryDx=0;entryDy=0;fontStyle=1;strokeWidth=2;" parent="1" source="Mc_krjjgkNhKQVEosxgI-27" target="Mc_krjjgkNhKQVEosxgI-34" edge="1">
          <mxGeometry width="50" height="50" relative="1" as="geometry">
            <mxPoint x="440" y="1369.69" as="sourcePoint" />
            <mxPoint x="480" y="1389.69" as="targetPoint" />
          </mxGeometry>
        </mxCell>
        <mxCell id="Mc_krjjgkNhKQVEosxgI-37" value="Y" style="edgeLabel;html=1;align=center;verticalAlign=middle;resizable=0;points=[];fontSize=17;fontStyle=1" parent="Mc_krjjgkNhKQVEosxgI-36" vertex="1" connectable="0">
          <mxGeometry x="-0.0742" relative="1" as="geometry">
            <mxPoint x="6" y="2" as="offset" />
          </mxGeometry>
        </mxCell>
        <mxCell id="Mc_krjjgkNhKQVEosxgI-38" value="" style="endArrow=classic;html=1;rounded=0;fontSize=17;entryX=0.5;entryY=0;entryDx=0;entryDy=0;exitX=0.501;exitY=0.98;exitDx=0;exitDy=0;exitPerimeter=0;fontStyle=1;strokeWidth=2;" parent="1" source="Mc_krjjgkNhKQVEosxgI-27" edge="1">
          <mxGeometry width="50" height="50" relative="1" as="geometry">
            <mxPoint x="660" y="1379.69" as="sourcePoint" />
            <mxPoint x="650" y="1529.69" as="targetPoint" />
          </mxGeometry>
        </mxCell>
        <mxCell id="Mc_krjjgkNhKQVEosxgI-40" value="N" style="edgeLabel;html=1;align=center;verticalAlign=middle;resizable=0;points=[];fontSize=17;fontStyle=1" parent="Mc_krjjgkNhKQVEosxgI-38" vertex="1" connectable="0">
          <mxGeometry x="-0.1258" y="1" relative="1" as="geometry">
            <mxPoint x="-1" y="9" as="offset" />
          </mxGeometry>
        </mxCell>
        <mxCell id="Mc_krjjgkNhKQVEosxgI-42" value="" style="html=1;shadow=0;dashed=0;align=center;verticalAlign=middle;shape=mxgraph.arrows2.arrow;dy=0;dx=0;notch=30;fontSize=17;fontStyle=1;strokeWidth=2;" parent="1" vertex="1">
          <mxGeometry x="180" y="1410" width="150" height="80" as="geometry" />
        </mxCell>
        <mxCell id="Mc_krjjgkNhKQVEosxgI-43" value="확인 버튼&lt;br style=&quot;font-size: 17px;&quot;&gt;누르면 사라짐" style="text;html=1;align=center;verticalAlign=middle;resizable=0;points=[];autosize=1;strokeColor=none;fillColor=none;fontSize=17;fontStyle=1" parent="1" vertex="1">
          <mxGeometry x="205" y="1424.69" width="120" height="50" as="geometry" />
        </mxCell>
        <mxCell id="Mc_krjjgkNhKQVEosxgI-46" value="" style="endArrow=block;dashed=1;endFill=0;endSize=12;html=1;rounded=0;fontSize=17;exitX=0.5;exitY=0;exitDx=0;exitDy=0;entryX=1;entryY=0.5;entryDx=0;entryDy=0;entryPerimeter=0;fontStyle=1;strokeWidth=2;" parent="1" source="Mc_krjjgkNhKQVEosxgI-34" target="Mc_krjjgkNhKQVEosxgI-42" edge="1">
          <mxGeometry width="160" relative="1" as="geometry">
            <mxPoint x="270" y="1550" as="sourcePoint" />
            <mxPoint x="430" y="1550" as="targetPoint" />
          </mxGeometry>
        </mxCell>
        <mxCell id="3q4-ErVGuZIJLskHHzQT-6" value="" style="edgeStyle=orthogonalEdgeStyle;rounded=0;orthogonalLoop=1;jettySize=auto;html=1;fontSize=17;entryX=0.5;entryY=0;entryDx=0;entryDy=0;fontStyle=1;strokeWidth=2;" parent="1" source="3q4-ErVGuZIJLskHHzQT-1" edge="1">
          <mxGeometry relative="1" as="geometry">
            <mxPoint x="544.9899999999998" y="360" as="targetPoint" />
          </mxGeometry>
        </mxCell>
        <mxCell id="3q4-ErVGuZIJLskHHzQT-1" value="&lt;font style=&quot;font-size: 17px;&quot;&gt;예약 버튼 누름&lt;/font&gt;" style="rounded=1;whiteSpace=wrap;html=1;labelBackgroundColor=#ffffff;fontStyle=1;fontSize=17;strokeWidth=2;" parent="1" vertex="1">
          <mxGeometry x="484.99" y="270" width="120" height="60" as="geometry" />
        </mxCell>
        <mxCell id="3q4-ErVGuZIJLskHHzQT-3" value="정보 비교" style="rounded=1;whiteSpace=wrap;html=1;labelBackgroundColor=#ffffff;fontSize=17;fontStyle=1;strokeWidth=2;" parent="1" vertex="1">
          <mxGeometry x="485" y="1089.69" width="120" height="60" as="geometry" />
        </mxCell>
        <mxCell id="3q4-ErVGuZIJLskHHzQT-4" value="&quot;예약할 수 &lt;br style=&quot;font-size: 17px;&quot;&gt;없습니다&quot; &lt;br style=&quot;font-size: 17px;&quot;&gt;출력" style="rounded=1;whiteSpace=wrap;html=1;labelBackgroundColor=#ffffff;fontSize=17;fontStyle=1;strokeWidth=2;" parent="1" vertex="1">
          <mxGeometry x="301" y="1219.85" width="120" height="79.69" as="geometry" />
        </mxCell>
        <mxCell id="3q4-ErVGuZIJLskHHzQT-5" value="메인으로&lt;br style=&quot;font-size: 17px;&quot;&gt;강제 복귀" style="rounded=1;whiteSpace=wrap;html=1;labelBackgroundColor=#ffffff;fontSize=17;fontStyle=1;strokeWidth=2;" parent="1" vertex="1">
          <mxGeometry x="150" y="1229.69" width="120" height="60" as="geometry" />
        </mxCell>
        <mxCell id="3q4-ErVGuZIJLskHHzQT-8" value="" style="ellipse;html=1;shape=startState;fillColor=#000000;strokeColor=#ff0000;labelBackgroundColor=#ffffff;fontSize=17;fontStyle=1" parent="1" vertex="1">
          <mxGeometry x="530" y="90" width="30" height="30" as="geometry" />
        </mxCell>
        <mxCell id="3q4-ErVGuZIJLskHHzQT-9" value="" style="edgeStyle=orthogonalEdgeStyle;html=1;verticalAlign=bottom;endArrow=open;endSize=8;strokeColor=#ff0000;rounded=0;fontSize=17;fontStyle=1;strokeWidth=2;" parent="1" source="3q4-ErVGuZIJLskHHzQT-8" edge="1">
          <mxGeometry relative="1" as="geometry">
            <mxPoint x="545" y="180" as="targetPoint" />
          </mxGeometry>
        </mxCell>
        <mxCell id="3q4-ErVGuZIJLskHHzQT-10" value="" style="ellipse;html=1;shape=endState;fillColor=#000000;strokeColor=#ff0000;labelBackgroundColor=#ffffff;fontSize=17;fontStyle=1" parent="1" vertex="1">
          <mxGeometry x="635" y="1620" width="30" height="30" as="geometry" />
        </mxCell>
        <mxCell id="3q4-ErVGuZIJLskHHzQT-11" value="" style="endArrow=classic;html=1;rounded=0;fontSize=17;exitX=0.5;exitY=1;exitDx=0;exitDy=0;entryX=0.5;entryY=0;entryDx=0;entryDy=0;fontStyle=1;strokeWidth=2;" parent="1" target="3q4-ErVGuZIJLskHHzQT-10" edge="1">
          <mxGeometry width="50" height="50" relative="1" as="geometry">
            <mxPoint x="650" y="1589.69" as="sourcePoint" />
            <mxPoint x="554.9972368421052" y="1201.69" as="targetPoint" />
          </mxGeometry>
        </mxCell>
        <mxCell id="3q4-ErVGuZIJLskHHzQT-12" value="" style="endArrow=classic;html=1;rounded=0;fontSize=17;entryX=0;entryY=0.5;entryDx=0;entryDy=0;edgeStyle=orthogonalEdgeStyle;fontStyle=1;strokeWidth=2;" parent="1" source="Mc_krjjgkNhKQVEosxgI-43" target="Mc_krjjgkNhKQVEosxgI-2" edge="1">
          <mxGeometry width="50" height="50" relative="1" as="geometry">
            <mxPoint x="160" y="729.69" as="sourcePoint" />
            <mxPoint x="500" y="215" as="targetPoint" />
            <Array as="points">
              <mxPoint x="70" y="1450" />
              <mxPoint x="70" y="205" />
            </Array>
          </mxGeometry>
        </mxCell>
        <mxCell id="3q4-ErVGuZIJLskHHzQT-13" value="예약 완료&lt;br style=&quot;font-size: 17px;&quot;&gt;메시지 출력" style="rounded=1;whiteSpace=wrap;html=1;labelBackgroundColor=#ffffff;fontSize=17;fontStyle=1;strokeWidth=2;" parent="1" vertex="1">
          <mxGeometry x="590" y="1530" width="120" height="60" as="geometry" />
        </mxCell>
        <mxCell id="mVvzNJm-mHIIu-5cLUpC-1" value="" style="edgeStyle=orthogonalEdgeStyle;rounded=0;orthogonalLoop=1;jettySize=auto;html=1;fontStyle=1;fontSize=17;strokeWidth=2;" parent="1" source="mVvzNJm-mHIIu-5cLUpC-2" target="mVvzNJm-mHIIu-5cLUpC-4" edge="1">
          <mxGeometry relative="1" as="geometry" />
        </mxCell>
        <mxCell id="mVvzNJm-mHIIu-5cLUpC-2" value="예약번호 조회&lt;br style=&quot;font-size: 17px;&quot;&gt;버튼" style="whiteSpace=wrap;html=1;fontSize=17;rounded=1;fontStyle=1;strokeWidth=2;" parent="1" vertex="1">
          <mxGeometry x="1010" y="270.00000000000006" width="120" height="60" as="geometry" />
        </mxCell>
        <mxCell id="mVvzNJm-mHIIu-5cLUpC-3" value="" style="edgeStyle=orthogonalEdgeStyle;rounded=0;orthogonalLoop=1;jettySize=auto;html=1;fontStyle=1;fontSize=17;strokeWidth=2;" parent="1" source="mVvzNJm-mHIIu-5cLUpC-4" target="mVvzNJm-mHIIu-5cLUpC-6" edge="1">
          <mxGeometry relative="1" as="geometry" />
        </mxCell>
        <mxCell id="mVvzNJm-mHIIu-5cLUpC-4" value="예약 시 사용한 전화번호 기입" style="whiteSpace=wrap;html=1;fontSize=17;rounded=1;fontStyle=1;strokeWidth=2;" parent="1" vertex="1">
          <mxGeometry x="1010" y="380.00000000000006" width="120" height="60" as="geometry" />
        </mxCell>
        <mxCell id="mVvzNJm-mHIIu-5cLUpC-5" value="" style="edgeStyle=orthogonalEdgeStyle;rounded=0;orthogonalLoop=1;jettySize=auto;html=1;fontStyle=1;fontSize=17;strokeWidth=2;" parent="1" source="mVvzNJm-mHIIu-5cLUpC-6" target="mVvzNJm-mHIIu-5cLUpC-7" edge="1">
          <mxGeometry relative="1" as="geometry" />
        </mxCell>
        <mxCell id="mVvzNJm-mHIIu-5cLUpC-6" value="전화번호로 &lt;br style=&quot;font-size: 17px;&quot;&gt;예약번호 호출" style="whiteSpace=wrap;html=1;fontSize=17;rounded=1;fontStyle=1;strokeWidth=2;" parent="1" vertex="1">
          <mxGeometry x="1010" y="489.6900000000001" width="120" height="60" as="geometry" />
        </mxCell>
        <mxCell id="mVvzNJm-mHIIu-5cLUpC-7" value="예약번호 출력 팝업&amp;nbsp;" style="whiteSpace=wrap;html=1;fontSize=17;rounded=1;fontStyle=1;strokeWidth=2;" parent="1" vertex="1">
          <mxGeometry x="1010" y="620.3100000000001" width="120" height="60" as="geometry" />
        </mxCell>
        <mxCell id="mVvzNJm-mHIIu-5cLUpC-9" value="" style="endArrow=classic;html=1;rounded=0;fontStyle=1;fontSize=17;strokeWidth=2;" parent="1" target="mVvzNJm-mHIIu-5cLUpC-2" edge="1">
          <mxGeometry width="50" height="50" relative="1" as="geometry">
            <mxPoint x="600" y="200" as="sourcePoint" />
            <mxPoint x="840" y="205" as="targetPoint" />
            <Array as="points">
              <mxPoint x="1070" y="200" />
            </Array>
          </mxGeometry>
        </mxCell>
        <mxCell id="s5cxBOMNiKuwJhkxbcvT-1" value="&lt;font style=&quot;font-size: 17px;&quot;&gt;좌석 혼잡도 기능, (2-4에서 추후 서술)&lt;/font&gt;" style="text;html=1;align=center;verticalAlign=middle;resizable=0;points=[];autosize=1;strokeColor=none;fillColor=none;fontStyle=1;fontSize=17;" parent="1" vertex="1">
          <mxGeometry x="725" y="1316.69" width="300" height="30" as="geometry" />
        </mxCell>
        <mxCell id="HhNQKhSK0bE4_6mPql5p-1" value="시간에 따라 &lt;br style=&quot;font-size: 17px;&quot;&gt;부여된 고유의&lt;br style=&quot;font-size: 17px;&quot;&gt;코드를 적용한다" style="rounded=1;whiteSpace=wrap;html=1;fontSize=17;fontStyle=1;strokeWidth=2;" parent="1" vertex="1">
          <mxGeometry x="270.99" y="530" width="130" height="70" as="geometry" />
        </mxCell>
        <mxCell id="HhNQKhSK0bE4_6mPql5p-2" value="예약된 시간 정보" style="edgeStyle=segmentEdgeStyle;endArrow=classic;html=1;rounded=0;fontSize=17;exitX=0;exitY=0;exitDx=0;exitDy=0;fontStyle=1;strokeWidth=2;" parent="1" source="HhNQKhSK0bE4_6mPql5p-10" edge="1">
          <mxGeometry x="0.484" width="50" height="50" relative="1" as="geometry">
            <mxPoint x="466.19000000000005" y="404.64" as="sourcePoint" />
            <mxPoint x="330.99" y="530" as="targetPoint" />
            <Array as="points">
              <mxPoint x="330.99" y="397" />
              <mxPoint x="330.99" y="530" />
            </Array>
            <mxPoint as="offset" />
          </mxGeometry>
        </mxCell>
        <mxCell id="HhNQKhSK0bE4_6mPql5p-3" value="예약한 좌석 번호" style="endArrow=classic;html=1;rounded=0;fontSize=17;entryX=0.5;entryY=0;entryDx=0;entryDy=0;exitX=1;exitY=0;exitDx=0;exitDy=0;fontStyle=1;strokeWidth=2;" parent="1" source="HhNQKhSK0bE4_6mPql5p-10" target="HhNQKhSK0bE4_6mPql5p-4" edge="1">
          <mxGeometry x="0.4043" width="50" height="50" relative="1" as="geometry">
            <mxPoint x="630.99" y="510" as="sourcePoint" />
            <mxPoint x="660.99" y="570" as="targetPoint" />
            <Array as="points">
              <mxPoint x="740.99" y="400" />
            </Array>
            <mxPoint as="offset" />
          </mxGeometry>
        </mxCell>
        <mxCell id="HhNQKhSK0bE4_6mPql5p-4" value="좌석 고유의 &lt;br style=&quot;font-size: 17px;&quot;&gt;번호 코드 &lt;br style=&quot;font-size: 17px;&quot;&gt;적용한다" style="rounded=1;whiteSpace=wrap;html=1;fontSize=17;fontStyle=1;strokeWidth=2;" parent="1" vertex="1">
          <mxGeometry x="680.99" y="555" width="120" height="70" as="geometry" />
        </mxCell>
        <mxCell id="HhNQKhSK0bE4_6mPql5p-5" value="&lt;i&gt;예시&amp;nbsp;&lt;/i&gt;" style="text;html=1;strokeColor=none;fillColor=none;align=center;verticalAlign=middle;whiteSpace=wrap;rounded=0;fontSize=17;fontStyle=1" parent="1" vertex="1">
          <mxGeometry x="180" y="760.0000000000001" width="50" height="60" as="geometry" />
        </mxCell>
        <mxCell id="HhNQKhSK0bE4_6mPql5p-6" value="예약 인원수 정보" style="edgeStyle=segmentEdgeStyle;endArrow=classic;html=1;rounded=0;fontSize=17;exitX=0;exitY=1;exitDx=0;exitDy=0;entryX=0.5;entryY=0;entryDx=0;entryDy=0;fontStyle=1;strokeWidth=2;" parent="1" source="HhNQKhSK0bE4_6mPql5p-10" target="HhNQKhSK0bE4_6mPql5p-7" edge="1">
          <mxGeometry x="0.3489" width="50" height="50" relative="1" as="geometry">
            <mxPoint x="622.19" y="405.36" as="sourcePoint" />
            <mxPoint x="740.99" y="480" as="targetPoint" />
            <mxPoint as="offset" />
          </mxGeometry>
        </mxCell>
        <mxCell id="HhNQKhSK0bE4_6mPql5p-7" value="예약 인원수에 따라 코드에 &lt;br style=&quot;font-size: 17px;&quot;&gt;적용" style="rounded=1;whiteSpace=wrap;html=1;fontSize=17;fontStyle=1;strokeWidth=2;" parent="1" vertex="1">
          <mxGeometry x="480.99" y="650" width="130" height="70" as="geometry" />
        </mxCell>
        <mxCell id="HhNQKhSK0bE4_6mPql5p-9" value="고유코드를 합쳐 &lt;br style=&quot;font-size: 17px;&quot;&gt;예약번호를 만든다" style="rounded=1;whiteSpace=wrap;html=1;fontSize=17;fontStyle=1;strokeWidth=2;" parent="1" vertex="1">
          <mxGeometry x="470.99" y="850" width="150" height="60" as="geometry" />
        </mxCell>
        <mxCell id="HhNQKhSK0bE4_6mPql5p-10" value="&#xa;&#xa;&lt;span style=&quot;color: rgb(0, 0, 0); font-family: helvetica; font-size: 17px; font-style: normal; letter-spacing: normal; text-align: center; text-indent: 0px; text-transform: none; word-spacing: 0px; background-color: rgb(248, 249, 250); display: inline; float: none;&quot;&gt;정보에 따라&lt;/span&gt;&lt;br style=&quot;color: rgb(0, 0, 0); font-family: helvetica; font-size: 17px; font-style: normal; letter-spacing: normal; text-align: center; text-indent: 0px; text-transform: none; word-spacing: 0px; background-color: rgb(248, 249, 250);&quot;&gt;&lt;span style=&quot;color: rgb(0, 0, 0); font-family: helvetica; font-size: 17px; font-style: normal; letter-spacing: normal; text-align: center; text-indent: 0px; text-transform: none; word-spacing: 0px; background-color: rgb(248, 249, 250); display: inline; float: none;&quot;&gt;따로 처리&lt;/span&gt;&#xa;&#xa;" style="rhombus;whiteSpace=wrap;html=1;fontSize=17;fontStyle=1;strokeWidth=2;" parent="1" vertex="1">
          <mxGeometry x="470.99" y="360" width="150" height="150" as="geometry" />
        </mxCell>
        <mxCell id="HhNQKhSK0bE4_6mPql5p-11" value="A타임 예약 =&amp;gt; A" style="edgeStyle=segmentEdgeStyle;endArrow=classic;html=1;rounded=0;fontSize=17;entryX=0;entryY=0.5;entryDx=0;entryDy=0;fontStyle=1;strokeWidth=2;" parent="1" target="HhNQKhSK0bE4_6mPql5p-9" edge="1">
          <mxGeometry x="-0.0952" width="50" height="50" relative="1" as="geometry">
            <mxPoint x="330.99" y="600" as="sourcePoint" />
            <mxPoint x="440.99" y="880" as="targetPoint" />
            <Array as="points">
              <mxPoint x="330.99" y="600" />
              <mxPoint x="330.99" y="880" />
            </Array>
            <mxPoint as="offset" />
          </mxGeometry>
        </mxCell>
        <mxCell id="HhNQKhSK0bE4_6mPql5p-12" value="좌석 예약 =&amp;gt; 번호 코드(각각의 좌표평면 x, y값)" style="endArrow=classic;html=1;rounded=0;fontSize=17;entryX=1;entryY=0.5;entryDx=0;entryDy=0;exitX=0.5;exitY=1;exitDx=0;exitDy=0;fontStyle=1;strokeWidth=2;" parent="1" source="HhNQKhSK0bE4_6mPql5p-4" target="HhNQKhSK0bE4_6mPql5p-9" edge="1">
          <mxGeometry x="-0.12" width="50" height="50" relative="1" as="geometry">
            <mxPoint x="545.99" y="740" as="sourcePoint" />
            <mxPoint x="520.99" y="690" as="targetPoint" />
            <mxPoint y="1" as="offset" />
            <Array as="points">
              <mxPoint x="740.99" y="880" />
            </Array>
          </mxGeometry>
        </mxCell>
        <mxCell id="HhNQKhSK0bE4_6mPql5p-13" value="3명 예약시 =&amp;gt; 3" style="edgeStyle=segmentEdgeStyle;endArrow=classic;html=1;rounded=0;fontSize=17;exitX=0.5;exitY=1;exitDx=0;exitDy=0;fontStyle=1;strokeWidth=2;" parent="1" source="HhNQKhSK0bE4_6mPql5p-7" target="HhNQKhSK0bE4_6mPql5p-9" edge="1">
          <mxGeometry x="-0.5385" width="50" height="50" relative="1" as="geometry">
            <mxPoint x="470.99" y="800" as="sourcePoint" />
            <mxPoint x="520.99" y="750" as="targetPoint" />
            <Array as="points">
              <mxPoint x="546" y="750" />
              <mxPoint x="546" y="750" />
            </Array>
            <mxPoint as="offset" />
          </mxGeometry>
        </mxCell>
        <mxCell id="3q4-ErVGuZIJLskHHzQT-7" value="개인 정보 동의" style="rounded=1;whiteSpace=wrap;html=1;labelBackgroundColor=#ffffff;fontSize=17;fontStyle=1;strokeWidth=2;" parent="1" vertex="1">
          <mxGeometry x="485.99" y="990" width="120" height="60" as="geometry" />
        </mxCell>
      </root>
    </mxGraphModel>
  </diagram>
</mxfile>
